<svg width="16" height="21" viewBox="0 0 16 21" fill="none" xmlns="http://www.w3.org/2000/svg">
<path d="M6.03275 19H9.96725C9.96725 20.1 9.08199 21 8 21C6.91801 21 6.03275 20.1 6.03275 19ZM15.8331 16.4453C16.2689 17.1099 15.8003 18 15.0147 18H0.985281C0.199663 18 -0.268929 17.1099 0.166854 16.4453L1.11461 15V9C1.11461 5.9 3.08186 3.2 6.03275 2.3C6.03275 1.11702 6.70705 0 8 0C9.29295 0 9.96725 1.11702 9.96725 2.3C12.9181 3.2 14.8854 5.9 14.8854 9V15L15.8331 16.4453ZM12.9181 9C12.9181 6.2 10.7542 4 8 4C5.24584 4 3.08187 6.2 3.08187 9V16H12.9181V9Z" fill="currentColor"/>
</svg>
